<?xml version="1.0"?>
<svg xmlns="http://www.w3.org/2000/svg" xmlns:xlink="http://www.w3.org/1999/xlink" xmlns:svgjs="http://svgjs.com/svgjs" version="1.1" width="512" height="512" x="0" y="0" viewBox="0 0 512 512" style="enable-background:new 0 0 512 512" xml:space="preserve" class=""><circle r="256" cx="256" cy="256" fill="#e4e4e4" shape="circle" transform="matrix(0.9,0,0,0.9,25.599999999999994,25.599999999999994)"/><g transform="matrix(0.7499999999999999,0,0,0.7499999999999999,64.00000000000003,64.00000000000003)">
<g xmlns="http://www.w3.org/2000/svg">
	<g>
		<g>
			<path d="M256,0C114.615,0,0,114.615,0,256s114.615,256,256,256s256-114.615,256-256C511.841,114.681,397.319,0.159,256,0z      M256,496C123.452,496,16,388.548,16,256S123.452,16,256,16s240,107.452,240,240C495.85,388.486,388.486,495.85,256,496z" fill="#000000" data-original="#000000" style="" class=""/>
			<path d="M256,32C132.288,32,32,132.288,32,256s100.288,224,224,224s224-100.288,224-224C479.859,132.347,379.653,32.141,256,32z      M256,464c-114.875,0-208-93.125-208-208S141.125,48,256,48s208,93.125,208,208C463.872,370.822,370.822,463.872,256,464z" fill="#000000" data-original="#000000" style="" class=""/>
			<path d="M86.226,302.575c-0.001-0.002-0.001-0.005-0.002-0.007C82.084,287.392,79.991,271.731,80,256c0-4.418-3.582-8-8-8     s-8,3.582-8,8c-0.012,17.158,2.272,34.24,6.792,50.792c0.951,3.473,4.104,5.883,7.704,5.888c0.716-0.003,1.428-0.097,2.12-0.28     C84.878,311.236,87.39,306.837,86.226,302.575z" fill="#000000" data-original="#000000" style="" class=""/>
			<path d="M256,432c-66.857,0.216-128.003-37.651-157.6-97.6c-1.973-3.957-6.779-5.565-10.736-3.592s-5.565,6.779-3.592,10.736     C116.367,406.934,183.07,448.236,256,448c4.418,0,8-3.582,8-8S260.418,432,256,432z" fill="#000000" data-original="#000000" style="" class=""/>
		</g>
	</g>
</g>
<g xmlns="http://www.w3.org/2000/svg">
</g>
<g xmlns="http://www.w3.org/2000/svg">
</g>
<g xmlns="http://www.w3.org/2000/svg">
</g>
<g xmlns="http://www.w3.org/2000/svg">
</g>
<g xmlns="http://www.w3.org/2000/svg">
</g>
<g xmlns="http://www.w3.org/2000/svg">
</g>
<g xmlns="http://www.w3.org/2000/svg">
</g>
<g xmlns="http://www.w3.org/2000/svg">
</g>
<g xmlns="http://www.w3.org/2000/svg">
</g>
<g xmlns="http://www.w3.org/2000/svg">
</g>
<g xmlns="http://www.w3.org/2000/svg">
</g>
<g xmlns="http://www.w3.org/2000/svg">
</g>
<g xmlns="http://www.w3.org/2000/svg">
</g>
<g xmlns="http://www.w3.org/2000/svg">
</g>
<g xmlns="http://www.w3.org/2000/svg">
</g>
</g></svg>
