<svg height="512" viewBox="0 0 60 60" width="512" xmlns="http://www.w3.org/2000/svg"><g id="Page-1" fill="none" fill-rule="evenodd"><g id="013---Aperture" fill="rgb(0,0,0)" fill-rule="nonzero"><path id="Shape" d="m30 0c-16.5685425 0-30 13.4314575-30 30s13.4314575 30 30 30 30-13.4314575 30-30c-.018737-16.5607751-13.4392249-29.98126296-30-30zm0 58c-15.463973 0-28-12.536027-28-28s12.536027-28 28-28 28 12.536027 28 28c-.0176345 15.4566626-12.5433374 27.9823655-28 28z"/><path id="Shape" d="m30 4c-2.4703459-.00135419-4.9283162.34882241-7.3 1.04-.3514198.09286243-.6247779.3690976-.7139561.72147035s.0198686.7253866.2848081.97423667.6440455.33434406.990148.22329298c1.5449292-.44722681 3.1309018-.73802196 4.734-.868l-6.625 9.29c-4.0249441 2.3790703-6.8949005 6.30813-7.937 10.866l-3.952-8.68c2.1882511-3.617802 5.292868-6.5937498 9-8.627.3216365-.16707125.5276965-.49509784.5385861-.85737429.0108897-.36227645-.1750958-.70208752-.4861167-.88817578-.3110208-.18608826-.698386-.18932116-1.0124694-.00844993-11.50261963 6.2866532-16.52858027 20.1513217-11.72637268 32.3484964 4.80220758 12.1971746 17.93136818 18.913904 30.63243848 15.6712075s21.0035763-15.4311216 19.3710789-28.4375515c-1.6324975-13.0064299-12.6896644-22.76493249-25.7981447-22.7681524zm.506 2.013c7.6743768.1626148 14.8071813 3.9890576 19.187 10.293l-11.341-1.1c-4.0647924-2.3099761-8.9040878-2.8355301-13.37-1.452zm-.506 8.987c8.2842712 0 15 6.7157288 15 15s-6.7157288 15-15 15-15-6.7157288-15-15c.0093685-8.2803876 6.7196124-14.9906315 15-15zm-21.706 4.79 4.713 10.353c.0403702 4.6927392 2.0258744 9.1584036 5.483 12.332l-9.517-.92c-3.70908082-6.7248085-3.96169008-14.8220701-.679-21.765zm2.013 23.9 11.341 1.1c4.0647924 2.3099761 8.9040878 2.8355301 13.37 1.452l-5.524 7.745c-7.6743768-.1626148-14.8071813-3.9890576-19.187-10.293zm21.7 10.216 6.626-9.291c4.0249441-2.3790703 6.8949005-6.30813 7.937-10.866l3.952 8.681c-3.9827878 6.5657465-10.8640755 10.8321746-18.516 11.48zm19.7-13.692-4.714-10.357c-.0403702-4.6927392-2.0258744-9.1584036-5.483-12.332l9.517.92c3.7073753 6.7278424 3.9614081 14.8260197.683 21.773z"/></g></g></svg>